<!DOCTYPE svg PUBLIC "-//W3C//DTD SVG 1.1//EN" "http://www.w3.org/Graphics/SVG/1.1/DTD/svg11.dtd">
<svg viewBox="0 0 425 78" version="1.1" xmlns="http://www.w3.org/2000/svg">
<g id="#ffffffff">
<path fill="#ffffff" opacity="1.00" d=" M 1.16 1.43 C 13.06 1.39 24.97 1.37 36.87 1.55 C 43.38 1.64 49.81 5.30 52.81 11.15 C 54.94 14.82 55.16 19.20 54.82 23.34 C 54.21 29.76 49.40 35.61 43.09 37.15 C 47.56 38.83 51.96 41.48 54.19 45.87 C 58.02 53.52 57.34 63.86 51.05 70.02 C 47.04 74.04 41.24 75.63 35.69 75.64 C 24.19 75.82 12.68 75.72 1.17 75.78 C 1.18 51.00 1.20 26.22 1.16 1.43 M 16.79 15.35 C 16.76 20.50 16.78 25.65 16.77 30.80 C 21.84 30.77 26.92 30.93 31.98 30.73 C 35.20 30.61 38.37 28.35 38.94 25.07 C 40.39 20.59 36.64 15.40 31.93 15.39 C 26.89 15.17 21.83 15.35 16.79 15.35 M 16.85 44.73 C 16.85 50.38 16.85 56.03 16.84 61.68 C 22.56 61.80 28.30 61.98 34.01 61.54 C 39.68 60.93 42.30 53.81 39.62 49.16 C 38.07 45.99 34.32 44.96 31.07 44.79 C 26.33 44.63 21.59 44.74 16.85 44.73 Z" />
<path fill="#ffffff" opacity="1.00" d=" M 213.52 1.47 C 230.53 1.47 247.55 1.47 264.57 1.47 C 264.51 6.06 264.65 10.66 264.41 15.25 C 252.71 15.43 241.00 15.26 229.30 15.31 C 229.32 20.48 229.31 25.65 229.31 30.82 C 238.11 31.09 247.00 30.20 255.74 31.28 C 255.78 35.75 255.73 40.23 255.75 44.70 C 246.90 44.70 238.06 44.70 229.21 44.70 C 229.22 55.00 229.21 65.31 229.22 75.62 C 223.99 75.65 218.76 75.62 213.52 75.64 C 213.54 50.92 213.55 26.20 213.52 1.47 Z" />
<path fill="#ffffff" opacity="1.00" d=" M 261.85 35.82 C 267.89 22.05 286.63 16.41 299.59 23.64 C 306.75 27.52 311.40 35.13 312.59 43.08 C 313.22 46.48 313.33 49.94 313.42 53.38 C 300.10 53.43 286.79 53.27 273.48 53.47 C 274.66 57.66 276.87 61.99 281.15 63.70 C 288.37 67.36 297.07 65.14 303.22 60.40 C 305.38 63.53 307.50 66.68 309.57 69.87 C 301.21 75.91 290.26 78.85 280.15 76.21 C 273.51 74.78 267.39 70.84 263.65 65.15 C 257.97 56.57 257.87 45.10 261.85 35.82 M 280.38 33.53 C 276.47 35.31 273.91 39.23 273.58 43.49 C 282.35 43.60 291.14 43.59 299.91 43.50 C 299.63 34.13 288.02 29.53 280.38 33.53 Z" />
<path fill="#ffffff" opacity="1.00" d=" M 329.49 24.32 C 338.56 18.94 350.88 19.06 359.44 25.45 C 368.05 31.79 370.96 43.15 370.33 53.38 C 357.09 53.41 343.86 53.32 330.62 53.43 C 331.66 59.15 336.22 63.92 341.91 65.13 C 348.33 66.34 355.23 64.51 360.23 60.31 C 362.37 63.46 364.54 66.61 366.59 69.83 C 358.00 76.26 346.37 78.99 335.98 75.89 C 327.62 73.88 320.64 67.34 317.85 59.24 C 316.06 54.53 316.03 49.36 316.47 44.40 C 317.35 36.13 322.45 28.64 329.49 24.32 M 337.52 33.51 C 333.60 35.26 330.87 39.19 330.84 43.52 C 339.53 43.56 348.21 43.59 356.89 43.51 C 356.79 34.14 345.10 29.56 337.52 33.51 Z" />
<path fill="#ffffff" opacity="1.00" d=" M 59.51 22.13 C 64.18 22.15 68.86 22.14 73.54 22.13 C 73.63 33.42 73.31 44.72 73.68 56.00 C 74.47 64.30 85.65 67.34 91.83 62.84 C 95.20 60.86 96.25 56.71 96.25 53.05 C 96.27 42.74 96.25 32.43 96.26 22.12 C 100.89 22.14 105.53 22.10 110.17 22.17 C 110.09 33.50 110.32 44.84 110.06 56.16 C 109.82 64.01 105.28 71.79 97.87 74.83 C 88.84 78.44 78.13 78.16 69.51 73.52 C 63.20 70.10 59.63 62.93 59.56 55.89 C 59.44 44.63 59.55 33.38 59.51 22.13 Z" />
<path fill="#ffffff" opacity="1.00" d=" M 114.59 22.11 C 119.73 22.13 124.86 22.12 130.00 22.10 C 132.33 22.10 134.66 22.11 136.99 22.12 C 142.32 22.11 147.66 22.14 153.00 22.10 C 154.51 22.11 156.03 22.12 157.55 22.13 C 157.18 26.08 158.70 30.67 155.95 34.04 C 148.41 43.83 140.71 53.49 133.14 63.25 C 141.36 63.29 149.58 63.26 157.80 63.26 C 157.78 67.38 157.78 71.49 157.80 75.61 C 143.36 75.61 128.91 75.61 114.46 75.61 C 114.50 72.06 114.48 68.51 114.55 64.96 C 122.55 54.77 130.47 44.52 138.42 34.29 C 130.48 34.17 122.54 34.26 114.60 34.24 C 114.58 30.20 114.59 26.15 114.59 22.11 Z" />
<path fill="#ffffff" opacity="1.00" d=" M 161.70 22.14 C 171.14 22.11 180.57 22.13 190.00 22.13 C 194.88 22.11 199.75 22.14 204.63 22.12 C 204.09 26.27 206.10 31.37 202.67 34.63 C 195.19 44.18 187.72 53.74 180.29 63.32 C 188.59 63.51 196.91 63.04 205.20 63.55 C 205.26 67.57 205.20 71.59 205.23 75.62 C 190.72 75.66 176.21 75.63 161.70 75.63 C 161.80 72.10 161.50 68.55 161.89 65.03 C 169.56 54.61 177.79 44.57 185.62 34.25 C 177.64 34.25 169.66 34.25 161.68 34.25 C 161.67 30.21 161.66 26.17 161.70 22.14 Z" />
<path fill="#ffffff" opacity="1.00" d=" M 373.76 26.04 C 373.67 24.53 373.95 23.06 374.36 21.61 C 384.27 21.94 394.30 20.93 404.11 22.77 C 411.74 24.23 418.60 29.41 421.72 36.57 C 425.65 44.81 425.35 54.94 420.74 62.84 C 416.24 70.82 407.08 75.62 398.02 75.66 C 389.94 75.78 381.86 75.87 373.78 75.68 C 373.77 59.13 373.80 42.58 373.76 26.04 M 387.23 33.38 C 387.28 43.68 387.22 53.98 387.26 64.28 C 392.64 64.15 398.42 64.97 403.35 62.25 C 412.42 57.08 413.41 42.28 404.93 36.07 C 399.82 32.27 393.14 33.63 387.23 33.38 Z" />
</g>
</svg>
